PathFileType	4	(X/Y/Z)	62_1_21_p0_0-374.trc
DataRate	CameraRate	NumFrames	NumMarkers	Units	OrigDataRate	OrigDataStartFrame	OrigNumFrames
60.0	60.0	7	27	m	60.0	187	375
Frame#	Time	RHip			RKnee			RAnkle			RBigToe			RSmallToe			RHeel			LHip			LKnee			LAnkle			LBigToe			LSmallToe			LHeel			Neck			Head			Nose			RShoulder			RElbow			RWrist			RThumb			RIndex			RPinky			LShoulder			LElbow			LWrist			LThumb			LIndex			LPinky			
		X1	Y1	Z1	X2	Y2	Z2	X3	Y3	Z3	X4	Y4	Z4	X5	Y5	Z5	X6	Y6	Z6	X7	Y7	Z7	X8	Y8	Z8	X9	Y9	Z9	X10	Y10	Z10	X11	Y11	Z11	X12	Y12	Z12	X13	Y13	Z13	X14	Y14	Z14	X15	Y15	Z15	X16	Y16	Z16	X17	Y17	Z17	X18	Y18	Z18	X19	Y19	Z19	X20	Y20	Z20	X21	Y21	Z21	X22	Y22	Z22	X23	Y23	Z23	X24	Y24	Z24	X25	Y25	Z25	X26	Y26	Z26	X27	Y27	Z27	
187	3.1166666666666667	0.34555902039602776	0.5090181450960376	0.25684515092283733	0.3291507635523723	0.7175744538152539	0.5790138706983143	0.30736461960830425	0.9613727329568422	0.8791830354937844	0.30922565998427465	0.867175105499881	0.9691777286821528	0.3533664619647068	0.8862714561239007	0.9626209485352017	0.3022132436213613	1.0143792082676322	0.8972947140674062	0.1504013728938814	0.4999003758600875	0.23433144723562432	0.11715843046918197	0.7367527578381848	0.5542292910925541	0.13032535368172568	1.0419452361312498	0.8389172382511919	0.10917713158333317	0.8814486144762366	0.9337812414316449	0.0746613928213296	0.9553571548121194	0.9094467941965191	0.1367558167726314	1.0994060371711978	0.8581225769193676	0.24833195075327846	0.03707546607149173	-0.07713905671154517	0.2752929800487277	-0.17462313656018455	-0.20270004553937299	0.24358384140113856	-0.14073871656001272	-0.07229229504902206	0.3836988850740473	0.06881742215089151	-0.029755605679052183	0.436763344443245	0.24301728428009536	0.1400337983055984	0.37657597858766517	0.05639939766207759	0.18491953275069906	0.2880898154712043	-0.03741644365168898	0.20129370477832537	0.30539981041291264	-0.04176475252289034	0.2145575544269871	0.32888281584961065	-0.032597249308032	0.2503675311676652	0.08013603059029163	0.08688429642147737	-0.08295470961018	0.0028004048196489614	0.13653134202140288	0.1232683908779277	0.11751321178094144	-0.00833227685785457	0.14483228065980006	0.18694790425679106	-0.03604728254252987	0.16803050237156458	0.18221573957159679	-0.06805146871582027	0.17988305529168758	0.17454045416152075	-0.04137302110686635	0.21098129330298254
188	3.1333333333333333	0.34513180046157305	0.5240039272242163	0.2514717913140638	0.32918977774119385	0.7177776202474	0.579198061217699	0.3074365523710087	0.9616041575163072	0.8791073846586367	0.31494308005443655	0.8708309115614027	0.9735801364499912	0.3536479826200135	0.8866558328666315	0.9625113384853334	0.30211510765459276	1.0134153534705719	0.8928145863082492	0.15034503640572633	0.5000981821673345	0.23443991100124942	0.11726218888518936	0.7384416820109883	0.5584297453549995	0.13026170341352847	1.0423536821685773	0.8390263385523112	0.11519901910707772	0.894479260890083	0.932782666587181	0.07480052499874587	0.9552049859541286	0.9095638376036603	0.13662790983713496	1.0993234356149035	0.8581705201913506	0.24904821877557928	0.03529477280525603	-0.08028187810068838	0.28068194940149377	-0.168014318073545	-0.20751301096433425	0.24806132246607226	-0.14437760474803957	-0.07778181155199404	0.38389506409125396	0.06902964629236344	-0.030024893527091423	0.4451285166443354	0.22583074467846068	0.14000253463478662	0.37704061341680534	0.054774326616318376	0.18199413934748915	0.2937877241598662	-0.04121143663508189	0.20314950205558688	0.31358247744540163	-0.05412777614551612	0.22340617750379996	0.3332132370057088	-0.005563927671910164	0.2350738311892438	0.08018624484216721	0.08680923312422703	-0.0829022173702056	-0.00570815144864013	0.12877718589878628	0.12987915445073286	0.11307669524499978	-0.01705022231800301	0.14904211694605432	0.1973254882532892	-0.03911417589596986	0.1668810016271277	0.18871904262833447	-0.0780234880661664	0.18443302676021142	0.17941748408889102	-0.04104130573947477	0.21095876150682372
189	3.15	0.3442106753628047	0.5205152089131289	0.24860883612538487	0.32910013993137355	0.7178499950860151	0.5793751389761874	0.3074359722058426	0.9614704337062931	0.8791551995171859	0.3157172215770187	0.8678986427666006	0.970847376325243	0.35351529114283725	0.8865574764532872	0.9625507850231901	0.295677272347248	1.0002484640282994	0.8984255335164956	0.15197191023688555	0.4861923488612202	0.23944388689387727	0.11752887944960687	0.7180534660289309	0.5589017103149404	0.130183464075742	1.042066415921901	0.8390268362643488	0.11658285357173279	0.8986351854679474	0.9366032662114185	0.07401618217989596	0.9581832665273993	0.9127658611438589	0.1365649986004072	1.0990115358720032	0.8581760162233086	0.25306168193494855	0.035493254270362214	-0.08047179234440541	0.2855685995802299	-0.16554786720908493	-0.20536986566565818	0.25964888291829336	-0.12541713482036027	-0.08185089245945767	0.38977026518318414	0.07960016760814667	-0.03149197997013494	0.4514341519500437	0.24647268807447176	0.1266429071866022	0.3769678305995285	0.054280186942859104	0.18185037015755715	0.29323484248288967	-0.04752029440451029	0.20492074999448948	0.32413038183557613	-0.05578823421037606	0.22065271709661444	0.33242809332132595	-0.02685648392856677	0.241698949376506	0.0803385215260212	0.08663917208164852	-0.08279940458506761	-0.007003269161366772	0.1379715096216401	0.12104586581594211	0.11814357320375886	-0.008891850473236368	0.1451354855934096	0.2074838470340684	-0.021368373875699773	0.15791710188922745	0.20416507216262833	-0.06964421785610805	0.1813206669755292	0.18531768123898826	-0.030900783596374343	0.21028776995537926
190	3.1666666666666665	0.34402510539136033	0.5080123859829137	0.25736938631231954	0.328379609012966	0.6984509166614793	0.5804758423229559	0.3061365688779052	0.9572829934184197	0.8758292874381651	0.3151797201817533	0.8477188701575034	0.9687067767590061	0.35394923755425095	0.8704004420004123	0.9644269382285412	0.29422551161851235	0.9955776622635564	0.8951824435638835	0.15034021724267324	0.4999794571994153	0.2345468983281637	0.11179189586751732	0.7050867772916805	0.5618295470776764	0.12884406139628213	1.037785494278879	0.8355305322460961	0.11528733345980183	0.8945258965033613	0.933058286428141	0.07397735447110845	0.9596083551097577	0.9163478468052086	0.13565766726492978	1.1025396464480601	0.8617127392342097	0.2534869448928413	0.040243290060943133	-0.07481860319858191	0.2859513187191591	-0.16540020198155164	-0.2048762661361597	0.2715874169000326	-0.11810763661784744	-0.0828215058177152	0.39023608324920833	0.07945163371084427	-0.03166414989250441	0.45838486050182914	0.23428179901671395	0.11595193769893271	0.37732835133323533	0.05598164033166413	0.1849268870096455	0.3029938678508609	-0.04049474257982519	0.19834549587617825	0.3285596250817514	-0.053748961156954204	0.22042058855624344	0.3339793988157809	-0.01574229665613307	0.23971147829512324	0.08539024163978151	0.08983422033620868	-0.08088291835418214	-0.0049829079178609955	0.1295832313296053	0.128008909912972	0.13322762570581956	-0.0022411667257198242	0.14187417343037162	0.21779789128933585	-0.022719147549541976	0.15879666341722123	0.2151586141318268	-0.06025697690431384	0.17937150255175463	0.18765007857432425	-0.034441452404073675	0.22325025331517245
191	3.183333333333333	0.3451762494829653	0.5151669320853619	0.26779074004196785	0.3274175135836758	0.702044408137121	0.58770884204663	0.30616473843892394	0.9574440545564789	0.8758297787018346	0.3114473347564302	0.8549590216189431	0.9758590578485907	0.35379598267459544	0.8702596994483401	0.9649150562716258	0.3022660092838447	1.0140751610916803	0.8973257455983962	0.1501760171912367	0.5001736803308204	0.23480821184907108	0.12042982852129316	0.7063131257820547	0.5667132685003163	0.12907943116963835	1.0456646606766637	0.8424755553466019	0.11419521512898108	0.8977315465474367	0.9364936558786944	0.07378849841165856	0.9596752542891599	0.9164747740532138	0.1346906245436387	1.1060368325824435	0.8654463395068706	0.2575230691293765	0.04065073921382813	-0.0748951634535547	0.2958852381194186	-0.1542859411831338	-0.20504602631777705	0.28124593363129935	-0.10863050171371078	-0.08469107020336104	0.3911410123024818	0.0824122940570007	-0.02916235633496084	0.44903020158153056	0.2616721637545543	0.1427537807315072	0.3828826527334409	0.0644717069608936	0.18172368923319715	0.31593262465903016	-0.03344496565584263	0.19227685529065955	0.3328765735850112	-0.06623246525080421	0.222684529523785	0.3331912788778444	-0.013513258594222019	0.2447412454852389	0.0869838495203308	0.07887018811372801	-0.07477676719390568	-0.006250837677396582	0.13852386116446244	0.1198031643654938	0.133483895108906	-0.0003909732598943557	0.14405063833311813	0.22496389570326572	-0.021176599978884013	0.1579919121291388	0.2366506633558483	-0.06381741029021608	0.181342260746236	0.20217407275771565	-0.016899058434605718	0.21968647139075362
192	3.2	0.34491864287388946	0.5302888574265459	0.2626139753519187	0.32844542594397486	0.7072389484767139	0.5949782901074893	0.3081915144005393	0.9577979843005431	0.8756527183357292	0.310578618742925	0.8846571036746366	0.9676487105447578	0.3535622098375997	0.8856579252680028	0.9621309687680679	0.30262264513204135	0.9894173644461332	0.8912481418691294	0.14979666063636846	0.5045039339984294	0.24108065955462055	0.11995210788964561	0.7094586324411685	0.5742925001696687	0.12906684920742148	1.045535288600123	0.8425737937976386	0.11088542184328597	0.8927835281114966	0.9455060194039783	0.07302040258357767	0.9799270922485701	0.9154532747839434	0.1352889392874311	1.1016687074976936	0.8583313545343653	0.26725454132246307	0.05331242229237194	-0.0739995221444602	0.30490960797131733	-0.16163693792185355	-0.19583151600935578	0.28124471267345286	-0.10696397381466588	-0.08161044218975123	0.3908138609886084	0.08864839684175423	-0.020193526699566738	0.4436008911881461	0.2899834908528995	0.15690400162537904	0.3833764287493039	0.06720828470254464	0.1846343815169521	0.3280578770349976	-0.031384257755359864	0.1785381076195943	0.34136279950273335	-0.05028736009562279	0.21123180732067048	0.33372988327180264	-0.013956610888360277	0.2418642736321117	0.09147510892616731	0.0798853060349375	-0.0751756027787966	-0.004469194498833391	0.12960349643868616	0.12794085807137412	0.14160644995873173	-0.013714481263459043	0.147475005964382	0.22616955698203398	-0.04179554567239228	0.1685927371425664	0.24203223741747087	-0.06879384490632649	0.18701919735896153	0.21882411735185767	-0.008471406548700308	0.22035591866444873
193	3.216666666666667	0.3453775092403473	0.51727795946599	0.27184698544640407	0.32300103709637323	0.6619706446580199	0.6055259479045207	0.3067457742267348	0.9534524766621562	0.8723531830619798	0.3024177461903662	0.8536212225332847	0.970034919958297	0.3467377522685187	0.8722826036176363	0.9634635258614846	0.30066339479852877	1.00248835173958	0.8858550807229781	0.14963902647825278	0.5045857050537801	0.24125628240554559	0.12151755639091243	0.6922847745092309	0.5750166946151081	0.12311734284087746	1.0311961028172976	0.8442144734682344	0.11071833966690058	0.8921468869547369	0.9453495505081005	0.07500929384990804	0.9630017951993601	0.9175439611366021	0.13419742564087495	1.1049469577688988	0.8617206895350646	0.2723226581716321	0.055976791990827716	-0.07128545882001436	0.31521241684742857	-0.16153465424405297	-0.18762171567113636	0.2877179151385837	-0.10423241227365139	-0.07197181238099877	0.39103231812959527	0.0903763039464374	-0.017056676006207114	0.44461081092905635	0.29180458044920526	0.1591528093299935	0.3832471000919079	0.06924213967704176	0.18738649825130274	0.328869250338308	-0.02878708320146282	0.1811047905215338	0.3420669263397525	-0.04968231506598486	0.21134419181932138	0.3331380247404031	-0.012957219658876355	0.24521306129594223	0.09963661471645215	0.1006187770233146	-0.08695962630649857	-0.004751066269477762	0.13133833452063212	0.1307270029742113	0.14176669846278486	-0.01205022295721137	0.1499199010525084	0.2312445638582381	-0.04669500299635943	0.171492056704831	0.2462243696523833	-0.07216693127365506	0.1887898781934228	0.2180032492910009	0.002538831828111387	0.2174652974217296
